<svg width="62" height="61" viewBox="0 0 62 61" fill="none" xmlns="http://www.w3.org/2000/svg">
<path d="M30.9834 0.360352C14.2886 0.360352 0.751953 13.897 0.751953 30.5918C0.751953 47.2866 14.2886 60.8233 30.9834 60.8233C47.6782 60.8233 61.2149 47.2866 61.2149 30.5918C61.2149 13.897 47.6782 0.360352 30.9834 0.360352ZM32.4882 45.2487L32.5017 47.3878C32.5017 47.6847 32.2588 47.9344 31.9619 47.9344H30.0454C29.7485 47.9344 29.5056 47.6915 29.5056 47.3946V45.2757C23.5133 44.8303 20.6926 41.4158 20.3889 37.7043C20.3619 37.3871 20.6116 37.1172 20.9288 37.1172H24.0464C24.3095 37.1172 24.539 37.3062 24.5795 37.5626C24.9236 39.7017 26.5904 41.301 29.5798 41.6992V32.0696L27.913 31.6445C24.3838 30.801 21.0232 28.6011 21.0232 24.0394C21.0232 19.1201 24.7617 16.4748 29.5393 16.0092V13.7823C29.5393 13.4854 29.7823 13.2425 30.0792 13.2425H31.9754C32.2723 13.2425 32.5152 13.4854 32.5152 13.7823V15.9889C37.1377 16.4546 40.6062 19.1538 41.0111 23.3579C41.0448 23.675 40.7951 23.9517 40.4712 23.9517H37.4413C37.1714 23.9517 36.942 23.7492 36.9082 23.4861C36.6383 21.5156 35.0593 19.9096 32.4882 19.5587V28.6214L34.2023 29.0195C38.575 30.0992 41.5509 32.1911 41.5509 36.8743C41.5509 41.9556 37.772 44.7898 32.4882 45.2487ZM25.2205 23.729C25.2205 25.443 26.28 26.7724 28.5608 27.5957C28.878 27.7239 29.1952 27.8251 29.5731 27.9331V19.5654C27.083 19.8826 25.2205 21.2794 25.2205 23.729ZM33.0821 32.8524C32.8931 32.8119 32.7042 32.7647 32.4882 32.704V41.7262C35.3629 41.4697 37.3469 39.8907 37.3469 37.2454C37.3469 35.1738 36.2739 33.8241 33.0821 32.8524Z" fill="#6C8F79"/>
</svg>
