<svg width="51" height="51" viewBox="0 0 51 51" fill="none" xmlns="http://www.w3.org/2000/svg">
<path d="M48.0565 41.5063C46.8035 38.6601 44.9853 36.0749 42.7031 33.8945C40.4278 31.7079 37.7324 29.9645 34.766 28.7606C34.7394 28.7478 34.7128 28.7415 34.6863 28.7287C38.8242 25.8624 41.5142 21.1934 41.5142 15.9257C41.5142 7.19924 34.1416 0.128906 25.0422 0.128906C15.9427 0.128906 8.57019 7.19924 8.57019 15.9257C8.57019 21.1934 11.2602 25.8624 15.3981 28.7351C15.3715 28.7478 15.345 28.7542 15.3184 28.767C12.3428 29.9708 9.67276 31.697 7.38129 33.9009C5.10118 36.0829 3.28325 38.6678 2.02789 41.5127C0.794636 44.2978 0.129511 47.2839 0.0685255 50.3092C0.0667527 50.3772 0.0791866 50.4448 0.105095 50.5081C0.131003 50.5714 0.169861 50.6291 0.21938 50.6778C0.268898 50.7264 0.328075 50.7651 0.393423 50.7915C0.458771 50.8179 0.528969 50.8315 0.59988 50.8315H4.58504C4.87728 50.8315 5.10975 50.6086 5.11639 50.3347C5.24923 45.4173 7.30823 40.812 10.948 37.3214C14.714 33.7098 19.7154 31.7225 25.0422 31.7225C30.369 31.7225 35.3704 33.7098 39.1364 37.3214C42.7761 40.812 44.8351 45.4173 44.968 50.3347C44.9746 50.6149 45.2071 50.8315 45.4993 50.8315H49.4845C49.5554 50.8315 49.6256 50.8179 49.6909 50.7915C49.7563 50.7651 49.8155 50.7264 49.865 50.6778C49.9145 50.6291 49.9534 50.5714 49.9793 50.5081C50.0052 50.4448 50.0176 50.3772 50.0158 50.3092C49.9494 47.2645 49.2919 44.3026 48.0565 41.5063ZM25.0422 26.8815C21.9935 26.8815 19.1242 25.7414 16.9656 23.6712C14.807 21.6011 13.6181 18.8494 13.6181 15.9257C13.6181 13.002 14.807 10.2503 16.9656 8.18017C19.1242 6.11003 21.9935 4.96986 25.0422 4.96986C28.0908 4.96986 30.9601 6.11003 33.1188 8.18017C35.2774 10.2503 36.4663 13.002 36.4663 15.9257C36.4663 18.8494 35.2774 21.6011 33.1188 23.6712C30.9601 25.7414 28.0908 26.8815 25.0422 26.8815Z" fill="#6C8F79"/>
</svg>
