<svg width="92" height="92" viewBox="0 0 92 92" fill="none" xmlns="http://www.w3.org/2000/svg">
<path d="M43.546 36.0094V24.5812L24.3246 37.375L32.9085 43.1045L43.546 36.0094ZM69.6366 50.1482V41.9545L63.4964 46.0513L69.6366 50.1482ZM46 0C20.5973 0 0 20.5973 0 46C0 71.4027 20.5973 92 46 92C71.4027 92 92 71.4027 92 46C92 20.5973 71.4027 0 46 0ZM74.5446 54.7277C74.5446 54.8406 74.5344 54.9433 74.5241 55.046C74.5241 55.0871 74.5138 55.1179 74.5036 55.1487C74.4891 55.261 74.4615 55.3713 74.4214 55.4772C74.4009 55.5388 74.3804 55.6004 74.3598 55.6518C74.3393 55.6929 74.3188 55.7339 74.3085 55.775C74.2777 55.8263 74.2571 55.8879 74.2263 55.9393C74.2058 55.9804 74.1853 56.0112 74.1545 56.0522C74.1237 56.1036 74.0826 56.1549 74.0518 56.2063C74.021 56.2473 74.0005 56.2781 73.9697 56.3089C73.9286 56.35 73.8875 56.4013 73.8464 56.4424C73.8156 56.4732 73.7848 56.504 73.7438 56.5348C73.7027 56.5759 73.6513 56.617 73.6 56.6478C73.5589 56.6786 73.5281 56.7094 73.4871 56.7299C73.4768 56.7402 73.4563 56.7504 73.446 56.7607L47.3554 74.1339C46.9446 74.4112 46.4723 74.5446 46 74.5446C45.5174 74.5446 45.0451 74.4009 44.6344 74.1339L18.5438 56.771C18.5335 56.7607 18.5129 56.7504 18.5027 56.7402L18.3897 56.658C18.3384 56.617 18.2973 56.5862 18.2563 56.5451C18.2254 56.5143 18.1946 56.4835 18.1536 56.4527C18.1125 56.4116 18.0714 56.3705 18.0304 56.3192C17.9999 56.2876 17.9724 56.2532 17.9482 56.2165C17.9071 56.1652 17.8763 56.1138 17.8455 56.0625C17.825 56.0214 17.7942 55.9906 17.7737 55.9496C17.7429 55.8982 17.7121 55.8366 17.6915 55.7853C17.671 55.7442 17.6504 55.7031 17.6402 55.6621C17.6196 55.6004 17.5991 55.5388 17.5786 55.4875C17.5683 55.4464 17.5478 55.4054 17.5375 55.3643C17.517 55.2924 17.5067 55.2308 17.4964 55.1589C17.4862 55.1281 17.4862 55.0871 17.4759 55.0563C17.4656 54.9536 17.4554 54.8406 17.4554 54.7379V37.3647C17.4554 37.2621 17.4656 37.1491 17.4759 37.0464C17.4862 37.0156 17.4862 36.9746 17.4964 36.9437C17.5109 36.8314 17.5385 36.7211 17.5786 36.6152C17.5991 36.5536 17.6196 36.492 17.6402 36.4406C17.6607 36.3996 17.6813 36.3585 17.6915 36.3174C17.7121 36.2661 17.7429 36.2045 17.7737 36.1531C17.7942 36.1121 17.8147 36.0812 17.8455 36.0402C17.9071 35.9478 17.9688 35.8656 18.0304 35.7835C18.0714 35.7424 18.1125 35.6911 18.1536 35.65C18.1844 35.6192 18.2152 35.5884 18.2563 35.5576C18.2973 35.5165 18.3487 35.4754 18.3897 35.4446C18.4308 35.4138 18.4616 35.383 18.5027 35.3625C18.5129 35.3522 18.5335 35.342 18.5438 35.3317L44.6344 17.9688C45.4558 17.4246 46.5339 17.4246 47.3554 17.9688L73.446 35.3317C73.4563 35.342 73.4768 35.3522 73.4871 35.3625L73.6 35.4446L73.7438 35.5576C73.7746 35.5884 73.8054 35.6192 73.8464 35.65C73.8875 35.6911 73.9286 35.7321 73.9697 35.7835C74.0415 35.8656 74.1031 35.9478 74.1545 36.0402C74.175 36.0812 74.2058 36.1121 74.2263 36.1531C74.2571 36.2045 74.2879 36.2558 74.3085 36.3174C74.329 36.3585 74.3496 36.3996 74.3598 36.4406C74.3804 36.5022 74.4009 36.5638 74.4214 36.6152C74.4317 36.6562 74.4522 36.6973 74.4625 36.7384C74.483 36.8103 74.4933 36.8719 74.5036 36.9437C74.5138 36.9746 74.5138 37.0156 74.5241 37.0464C74.5344 37.1491 74.5446 37.2621 74.5446 37.3647V54.7277ZM48.454 56.0933V67.5214L67.6754 54.7277L59.0915 48.9982L48.454 56.0933ZM22.3634 41.9545V50.1482L28.5036 46.0513L22.3634 41.9545ZM46 40.2603L37.3237 46.0513L46 51.8424L54.6763 46.0513L46 40.2603ZM67.6754 37.375L48.454 24.5812V36.0094L59.0915 43.1045L67.6754 37.375ZM32.9085 48.9982L24.3246 54.7277L43.546 67.5214V56.0933L32.9085 48.9982Z" fill="#6C8F79"/>
</svg>
