<svg width="90" height="70" viewBox="0 0 90 70" fill="none" xmlns="http://www.w3.org/2000/svg">
<path d="M89.8996 25.7668L87.5192 21.892C87.4122 21.7211 87.237 21.5967 87.0319 21.5459C86.8268 21.495 86.6084 21.5219 86.4244 21.6205L81.3322 24.391L73.4679 4.15564C73.0527 2.9482 72.2364 1.89497 71.1369 1.14802C70.0375 0.40107 68.7118 -0.000951581 67.3512 1.69138e-06H23.8311C20.3459 1.69138e-06 17.2524 2.09654 16.1777 5.19455L8.68497 24.4003L3.58269 21.6299C3.39874 21.5312 3.18036 21.5044 2.97524 21.5552C2.77012 21.6061 2.59492 21.7305 2.48791 21.9013L0.107518 25.7668C-0.113447 26.1225 0.0171236 26.5717 0.39879 26.7776L6.46528 30.0722L5.00892 33.816C4.88839 34.1155 4.82813 34.4338 4.82813 34.752V67.3419C4.82813 68.8113 6.01331 70 7.46967 70H14.2593C15.4947 70 16.5694 69.1296 16.8305 67.9128L17.6039 64.3843H72.4032L73.1766 67.9128C73.4478 69.1296 74.5124 70 75.7478 70H82.5375C83.9938 70 85.179 68.8113 85.179 67.3419V34.752C85.179 34.4338 85.1187 34.1155 84.9982 33.816L83.5418 30.0722L89.5983 26.7776C89.7806 26.6795 89.9143 26.5187 89.9707 26.3296C90.027 26.1406 90.0015 25.9385 89.8996 25.7668ZM20.0948 45.1972C17.8751 45.1972 16.0773 43.5219 16.0773 41.4534C16.0773 39.3849 17.8751 37.7096 20.0948 37.7096C22.3145 37.7096 24.1123 39.3849 24.1123 41.4534C24.1123 43.5219 22.3145 45.1972 20.0948 45.1972ZM59.065 52.2169C59.065 52.6287 58.7034 52.9656 58.2615 52.9656H31.7457C31.3037 52.9656 30.9422 52.6287 30.9422 52.2169V44.3549C30.9422 43.943 31.3037 43.6061 31.7457 43.6061H35.7632C36.2051 43.6061 36.5667 43.943 36.5667 44.3549V47.7243H53.4404V44.3549C53.4404 43.943 53.802 43.6061 54.2439 43.6061H58.2615C58.7034 43.6061 59.065 43.943 59.065 44.3549V52.2169ZM69.9123 45.1972C67.6926 45.1972 65.8948 43.5219 65.8948 41.4534C65.8948 39.3849 67.6926 37.7096 69.9123 37.7096C72.132 37.7096 73.9299 39.3849 73.9299 41.4534C73.9299 43.5219 72.132 45.1972 69.9123 45.1972ZM15.6755 26.1974L22.9774 7.48763L23.0276 7.36596L23.0678 7.24428C23.1783 6.93542 23.4796 6.72951 23.8311 6.72951H66.7786L74.3517 26.1974H15.6755Z" fill="#6C8F79"/>
</svg>
