<svg width="92" height="91" viewBox="0 0 92 91" fill="none" xmlns="http://www.w3.org/2000/svg">
<path d="M46 0.255859C20.5973 0.255859 0 20.3705 0 45.1779C0 69.9853 20.5973 90.1 46 90.1C71.4027 90.1 92 69.9853 92 45.1779C92 20.3705 71.4027 0.255859 46 0.255859ZM64.1228 58.9854L61.1862 62.896C61.1223 62.9812 61.0418 63.0532 60.9494 63.1079C60.8569 63.1626 60.7543 63.1989 60.6474 63.2147C60.5406 63.2305 60.4316 63.2256 60.3267 63.2002C60.2218 63.1747 60.123 63.1293 60.0362 63.0665L43.0531 50.9737C42.9473 50.8995 42.8613 50.8015 42.8024 50.6881C42.7434 50.5747 42.7132 50.4491 42.7143 50.3219V22.7169C42.7143 22.2757 43.0839 21.9147 43.5357 21.9147H48.4746C48.9263 21.9147 49.296 22.2757 49.296 22.7169V47.5343L63.938 57.8724C64.3076 58.1231 64.3897 58.6244 64.1228 58.9854Z" fill="#6C8F79"/>
</svg>
